<?xml version="1.0" ?>
<!DOCTYPE svg  PUBLIC '-//W3C//DTD SVG 1.1//EN'  'http://www.w3.org/Graphics/SVG/1.1/DTD/svg11.dtd'>
<!-- Uploaded to: SVG Repo, www.svgrepo.com, Generator: SVG Repo Mixer Tools -->
<svg fill="#000000" width="800px" height="800px" viewBox="0 0 512 512" enable-background="new 0 0 512 512" id="Receiver" version="1.1" xml:space="preserve" xmlns="http://www.w3.org/2000/svg" xmlns:xlink="http://www.w3.org/1999/xlink">
<g>
<rect height="11.49" transform="matrix(0.583 0.8125 -0.8125 0.583 226.947 -238.2861)" width="10" x="340.606" y="96.198"/>
<path d="M471.972,321.252c-8.603-5.896-19.543-7.17-29.269-3.412l-0.216,0.084l-4.209,2.013   c-7.125-8.887-18.328-13.822-29.897-12.813c-4.169,0.346-8.234,1.455-12.113,3.311l-2.087,1.012   c-3.405-5.924-8.759-10.378-15.272-12.643c-7.165-2.491-14.869-2.041-21.687,1.266l-46.594,22.544   c-3.611-1.446-7.547-2.249-11.669-2.249h-97.376l-5.925,0.051c-36.098,0.317-70.114,16-93.778,43.129H81.922v-14.181H26.293v10   h45.629v92.139H26.293v10h55.629v-14.665h26.631l176.719,10.619c0.782,0.047,1.564,0.07,2.347,0.07   c5.896,0,11.755-1.328,17.066-3.882l161.044-76.927c4.047-1.602,7.651-3.967,10.718-7.033c5.972-5.971,9.26-13.912,9.26-22.361   C485.707,336.895,480.572,327.148,471.972,321.252z M394.086,324.83l7.391-3.586c2.529-1.21,5.187-1.938,7.921-2.164   c6.6-0.578,13.002,1.789,17.612,6.245l-96.291,46.043h-7.043c3.485-4.407,5.816-9.763,6.54-15.613L394.086,324.83z    M362.453,310.867c3.936-1.908,8.379-2.168,12.514-0.73c3.485,1.212,6.387,3.516,8.359,6.564l-54.161,26.229   c-1.399-4.722-3.876-8.983-7.146-12.499L362.453,310.867z M467.963,361.198c-1.935,1.935-4.22,3.421-6.79,4.415l-0.214,0.083   L299.5,442.822c-4.193,2.016-8.865,2.934-13.509,2.654l-176.897-10.63l-27.171-0.011v-59.293h25.536l1.799-2.158   c21.462-25.742,52.992-40.676,86.506-40.971l5.872-0.051h97.324c10.755,0,19.505,8.749,19.505,19.504   c0,10.732-8.714,19.464-19.438,19.501h-73.859l-29.087,9.538l3.739,11.402l27.265-8.94h4.151v0.003h67.724   c0.045,0,0.09-0.003,0.135-0.003h34.346l113.793-54.413c6.067-2.271,12.6-1.477,17.953,2.195c5.416,3.713,8.521,9.607,8.521,16.172   C473.707,352.566,471.667,357.494,467.963,361.198z"/>
<rect height="10.887" width="10" x="55.701" y="367.885"/>
<rect height="56.831" width="10" x="55.701" y="386.607"/>
<polygon points="266.134,237.522 266.134,289.451 255.578,278.895 248.507,285.966 271.134,308.594 293.879,285.848    286.809,278.776 276.134,289.451 276.134,237.522  "/>
<path d="M223.865,253.561l-10.615-10.615l-7.071,7.071l22.627,22.627l22.745-22.746l-7.071-7.071l-10.615,10.615v-24.42h74.537   v24.539l-10.615-10.615l-7.07,7.071l22.627,22.627l22.745-22.746l-7.07-7.071l-10.616,10.616v-24.421h96.925V50.499H126.94v178.523   h96.925V253.561z M146.479,219.022l88.992-69.4l-6.149-7.886l-92.381,72.043V65.241l119.692,85.89   c4.338,3.112,9.42,4.668,14.502,4.668c5.083,0,10.166-1.556,14.503-4.668l49.217-35.318l-5.83-8.125l-49.217,35.318   c-5.187,3.723-12.156,3.723-17.345,0L147.484,60.499h247.299l-38.875,27.896l5.83,8.125l43.589-31.279v148.535l-92.384-72.04   l-6.148,7.886l88.998,69.4h-77.391v-14.25h-10v14.25h-74.537v-14.25h-10v14.25H146.479z"/>
<rect height="14.5" width="10" x="266.134" y="199.772"/>
<rect height="14.5" width="10" x="223.865" y="181.348"/>
<rect height="14.5" width="10" x="308.402" y="181.348"/>
</g>
</svg>